<svg xmlns="http://www.w3.org/2000/svg" width="1000" height="792"><path d="M0 396.001v396.001l500.25-.251 500.25-.251.251-395.75.252-395.75H0v396.001m.495.499c0 217.8.115 306.751.255 197.669.14-109.083.14-287.283 0-396C.61 89.451.495 178.7.495 396.5M479 175.673c-49.932 1.564-104.289 9.948-151.5 23.368-18.437 5.241-49.544 15.66-57.833 19.371-12.098 5.416-20.488 17.3-21.412 30.329-.546 7.701 3.127 24.167 11.826 53.024 31.884 105.756 95.071 203.675 178.18 276.122 16.702 14.559 38.714 31.748 44.279 34.577 10.662 5.42 23.116 5.43 33.96.027 11.354-5.657 47.332-36.167 73.02-61.921 36.576-36.671 64.178-72.124 91.532-117.57C689.356 419.203 710 380.017 710 378.05c0-.418-3.937-2.582-8.75-4.809-44.337-20.518-91.259-34.218-139.25-40.656-12.842-1.723-33.26-3.559-39.75-3.575L518 329v71.962l2.25.427c1.237.234 8.468.929 16.067 1.544 7.6.614 20.425 2.235 28.5 3.602C580.086 409.119 605 414.8 605 415.698c0 .812-12.62 18.796-20.913 29.802-22.33 29.633-54.774 63.647-83.168 87.193-1.368 1.134-3.525-.421-16-11.535-24.265-21.617-47.563-46.543-66.51-71.158C409.683 438.663 394 416.651 394 415.741c0-.934 24.581-6.566 40.183-9.206 8.075-1.367 20.9-2.988 28.5-3.602 7.599-.615 14.829-1.31 16.067-1.544l2.25-.427V329l-4.25.01c-25.805.063-79.195 9.031-110.603 18.578-4.594 1.397-8.534 2.358-8.755 2.137-1.04-1.04-12.694-28.681-17.17-40.725-5.536-14.892-11.629-33.927-11.047-34.508 1.031-1.031 37.893-10.871 52.087-13.903 36.081-7.709 67.556-11.335 106.238-12.238 45.957-1.073 89.955 3.233 134.554 13.169 13.837 3.083 46.839 12.04 47.762 12.963.542.541-4.446 16.383-9.391 29.83-2.434 6.618-4.425 12.143-4.425 12.278 0 .134 3.712 1.46 8.25 2.944 11.485 3.758 38.336 14.41 50.168 19.902 5.439 2.524 10.002 4.471 10.139 4.326 1.081-1.135 12.639-35.846 16.899-50.746 7.819-27.356 9.88-37.244 9.291-44.584-.999-12.439-8.977-24.071-20.14-29.362-7.559-3.583-37.417-13.816-55.868-19.146-47.786-13.807-95.919-21.536-148.83-23.898-21.221-.947-26.646-.988-46.909-.354" fill="undefined" fill-rule="evenodd"/></svg>